<svg xmlns="http://www.w3.org/2000/svg" viewBox="0 0 147.4 147.4"><title>bupa-svg-logo_JAS-01</title><rect width="147.4" height="147.4" fill="#0079c8"/><path d="M74.5,38.2A6.55,6.55,0,0,0,80.7,35l-.1.3a2.09,2.09,0,0,0,1.7,2.5h1.6l3-17H83.2l-.5,2.6a6.12,6.12,0,0,0-5.6-3c-5.4,0-8.6,4.4-9.1,9.2C67.5,35.1,71,38.2,74.5,38.2Zm3.3-15c6.2.3,4.2,12.2-2.1,11.9-5.8-.3-4-12.2,2.1-11.9ZM26.6,19.7c0-3.8-2.5-5.6-6.8-5.6H11.4L7.1,37.9h7.7a21.72,21.72,0,0,0,4.4-.3,7.64,7.64,0,0,0,6.4-6.4,5,5,0,0,0-3.8-5.8A5.88,5.88,0,0,0,26.6,19.7Zm-9,15.2a13.68,13.68,0,0,1-2.9.2H12l1.4-8h4.1c5.5,0,5,6.6.1,7.8Zm1.7-10.8a7.07,7.07,0,0,1-2.5.2H13.9l1.4-7.6h3.8c4.3,0,4,6.1.2,7.4ZM43,20.8H41.9s-1.6,9.4-1.8,10.4c-.4,2.3-1.5,3.9-4.6,3.9-1.8,0-3.5-1.1-3.1-3.5.2-.9,1.3-7.7,1.4-8.3.3-1.8-1.2-2.6-2.5-2.6h-1c-.2,1.4-1.3,7.4-1.7,9.8a10.55,10.55,0,0,0-.2,2.5c.4,3.2,3.2,5.1,6.6,5.1,6,0,8.2-3.1,8.9-6.8.2-1.2,1.4-7.4,1.5-8a2.26,2.26,0,0,0-1.8-2.6A1.27,1.27,0,0,1,43,20.8Zm6.1,23.8,1.7-9.4a6.28,6.28,0,0,0,5.7,3c5.5,0,8.9-4.3,9.2-9.3.4-5.3-2.8-8.4-6.4-8.4a7.68,7.68,0,0,0-6.4,3.1v-.2a2.09,2.09,0,0,0-1.7-2.5H49.5s-3.2,18.4-3.6,20.6a2.47,2.47,0,0,0,1.6,3.1,1.7,1.7,0,0,0,.7.1Zm9-21c5.7.3,3.9,12.2-2.1,11.9s-4.2-12.3,2.1-11.9ZM138,45a17.68,17.68,0,0,1-5.1-.5,14.85,14.85,0,0,1-4.3-2.7c-.7-.5-1.4-1.1-2.3-1.7a4.61,4.61,0,0,0-2.6-1c-1,0-2,.6-3.3,1.8a75.07,75.07,0,0,0-5.4,7.2c-.1.1-.2.2-.3.2-.3,0-.3-.3-.3-.5,0-4.5-.8-28.7-1.2-36-.2-3.2-1.2-5.2-2.6-5.2-1.1,0-2.8,1.5-3.8,5.7C104.1,22.9,98.5,46.6,96,58.6c0,.1-.2.2-.3.2a.22.22,0,0,1-.2-.2c-.3-1.2-.5-2.6-.8-3.8-.7-3.7-1.4-6.9-2.6-8.7-1.4-2-3.5-2.1-6.1-.4-.6.4-1.1.9-1.7,1.3-1.6,1.4-3.5,3-6.5,3H48l-.7,4H78.9c3.2,0,6.2-1.9,8-3.1a4.21,4.21,0,0,1,2-1c.7,0,1,.7,1.3,1.8a20,20,0,0,1,.4,2.1,70,70,0,0,0,2.6,10c.6,1.4,1.4,2.2,2.3,2.2,1.4,0,2.8-1.6,3.6-4.2,1.1-3.4,7.4-31,10.1-42.6a7.35,7.35,0,0,1,.2-.8.32.32,0,0,1,.3-.3c.1,0,.3.1.3.4h0c.2,11.7.8,32.3,1.7,34.4q.75,1.8,2.1,1.8a4.53,4.53,0,0,0,3.3-2.2c.4-.7,1-1.5,1.7-2.5,1.5-2.3,3.3-4.8,3.8-5.4.8-.8,1.6-.8,2.9,0,.2.1.4.3.7.5a16.37,16.37,0,0,0,11.3,3.5,12.89,12.89,0,0,0,2.3-.1l.7-3.7A9.37,9.37,0,0,1,138,45Z" transform="translate(0 0)" fill="#fff"/></svg>